<?xml version="1.0" encoding="UTF-8"?>
<svg width="28px" height="27px" viewBox="0 0 28 27" version="1.1" xmlns="http://www.w3.org/2000/svg" xmlns:xlink="http://www.w3.org/1999/xlink">
    <!-- Generator: Sketch 49.1 (51147) - http://www.bohemiancoding.com/sketch -->
    <title>icon-github</title>
    <desc>Created with Sketch.</desc>
    <defs></defs>
    <g id="Symbols" stroke="none" stroke-width="1" fill="none" fill-rule="evenodd">
        <g id="Header" transform="translate(-1119.000000, -28.000000)" fill="#FFFFFF" fill-rule="nonzero">
            <g id="icon-github" transform="translate(1117.000000, 26.000000)">
                <path d="M15.999125,2 C8.2685,2 2,8.19684009 2,15.842753 C2,21.9574068 6.011,27.1455194 11.575125,28.976109 C12.275125,29.1032813 12.530625,28.6759133 12.530625,28.3091033 C12.530625,27.9803582 12.518375,27.1100494 12.511375,25.955117 C8.61675,26.7916861 7.795125,24.0994391 7.795125,24.0994391 C7.159,22.5007008 6.241125,22.075063 6.241125,22.075063 C4.96975,21.2160006 6.337375,21.233303 6.337375,21.233303 C7.74175,21.3310613 8.481125,22.6598824 8.481125,22.6598824 C9.730625,24.7750963 11.758,24.164323 12.556,23.8096246 C12.682875,22.9150927 13.045125,22.3051846 13.445,21.9591371 C10.336125,21.6096295 7.068,20.4226877 7.068,15.1186491 C7.068,13.6072879 7.613125,12.3718995 8.509125,11.4038323 C8.36475,11.0534596 7.884375,9.64677801 8.645625,7.74092269 C8.645625,7.74092269 9.821625,7.36892243 12.495625,9.15971639 C13.613,8.85259943 14.81,8.69947382 16.000875,8.69341777 C17.19,8.69947382 18.387875,8.85259943 19.506125,9.15971639 C22.178375,7.36892243 23.35175,7.74092269 23.35175,7.74092269 C24.115625,9.64677801 23.63525,11.0534596 23.490875,11.4038323 C24.388625,12.3718995 24.93025,13.6072879 24.93025,15.1186491 C24.93025,20.4356644 21.656875,21.6061689 18.538375,21.9487559 C19.040625,22.3761239 19.488625,23.2204794 19.488625,24.5121002 C19.488625,26.3625877 19.471125,27.8549162 19.471125,28.3091033 C19.471125,28.6793739 19.723125,29.1102025 20.433625,28.9743788 C25.9925,27.1403285 30,21.9556765 30,15.842753 C30,8.19684009 23.7315,2 15.999125,2" id="Github"></path>
            </g>
        </g>
    </g>
</svg>