<?xml version="1.0" encoding="UTF-8"?>
<svg width="28px" height="28px" viewBox="0 0 28 28" version="1.1" xmlns="http://www.w3.org/2000/svg" xmlns:xlink="http://www.w3.org/1999/xlink">
    <!-- Generator: Sketch 49.1 (51147) - http://www.bohemiancoding.com/sketch -->
    <title>icon-github</title>
    <desc>Created with Sketch.</desc>
    <defs></defs>
    <g id="Symbols" stroke="none" stroke-width="1" fill="none" fill-rule="evenodd">
        <g id="Header" transform="translate(-1124.000000, -26.000000)">
            <g id="icon-github" transform="translate(1116.000000, 18.000000)">
                <rect id="Rectangle" x="0" y="0" width="44" height="44"></rect>
                <path d="M21.999125,8.5 C14.2685,8.5 8,14.6968401 8,22.342753 C8,28.4574068 12.011,33.6455194 17.575125,35.476109 C18.275125,35.6032813 18.530625,35.1759133 18.530625,34.8091033 C18.530625,34.4803582 18.518375,33.6100494 18.511375,32.455117 C14.61675,33.2916861 13.795125,30.5994391 13.795125,30.5994391 C13.159,29.0007008 12.241125,28.575063 12.241125,28.575063 C10.96975,27.7160006 12.337375,27.733303 12.337375,27.733303 C13.74175,27.8310613 14.481125,29.1598824 14.481125,29.1598824 C15.730625,31.2750963 17.758,30.664323 18.556,30.3096246 C18.682875,29.4150927 19.045125,28.8051846 19.445,28.4591371 C16.336125,28.1096295 13.068,26.9226877 13.068,21.6186491 C13.068,20.1072879 13.613125,18.8718995 14.509125,17.9038323 C14.36475,17.5534596 13.884375,16.146778 14.645625,14.2409227 C14.645625,14.2409227 15.821625,13.8689224 18.495625,15.6597164 C19.613,15.3525994 20.81,15.1994738 22.000875,15.1934178 C23.19,15.1994738 24.387875,15.3525994 25.506125,15.6597164 C28.178375,13.8689224 29.35175,14.2409227 29.35175,14.2409227 C30.115625,16.146778 29.63525,17.5534596 29.490875,17.9038323 C30.388625,18.8718995 30.93025,20.1072879 30.93025,21.6186491 C30.93025,26.9356644 27.656875,28.1061689 24.538375,28.4487559 C25.040625,28.8761239 25.488625,29.7204794 25.488625,31.0121002 C25.488625,32.8625877 25.471125,34.3549162 25.471125,34.8091033 C25.471125,35.1793739 25.723125,35.6102025 26.433625,35.4743788 C31.9925,33.6403285 36,28.4556765 36,22.342753 C36,14.6968401 29.7315,8.5 21.999125,8.5" id="Github" fill="#FFFFFF" fill-rule="nonzero"></path>
            </g>
        </g>
    </g>
</svg>