<?xml version="1.0" encoding="UTF-8"?>
<svg width="44px" height="30px" viewBox="0 0 44 30" version="1.1" xmlns="http://www.w3.org/2000/svg" xmlns:xlink="http://www.w3.org/1999/xlink">
    <!-- Generator: Sketch 49.1 (51147) - http://www.bohemiancoding.com/sketch -->
    <title>icon-logo</title>
    <desc>Created with Sketch.</desc>
    <defs></defs>
    <g id="Symbols" stroke="none" stroke-width="1" fill="none" fill-rule="evenodd">
        <g id="Header" transform="translate(-236.000000, -25.000000)" fill="#FFFFFF">
            <g id="original_Header_97390330">
                <g id="logo" transform="translate(236.000000, 23.000000)">
                    <g id="icon-logo" transform="translate(0.000000, 2.000000)">
                        <path d="M12.9378333,8.39911111 C12.5711667,8.75466667 12.3841667,9.144 12.3841667,9.55822222 C12.3841667,9.576 12.386,9.59377778 12.3878333,9.61155556 C12.43,11.8053333 17.38,12.8044444 21.978,12.8044444 C26.2093333,12.8044444 29.7513333,12.0097778 31.0016667,10.7813333 C31.009,10.7742222 31.0181667,10.7653333 31.0273333,10.7564444 C31.1373333,10.6462222 31.2235,10.5395556 31.2693333,10.4666667 C31.5021667,10.1608889 31.614,9.864 31.614,9.55822222 C31.614,8.84177778 31.0896667,8.22666667 30.0758333,7.73955556 C28.391,6.87555556 25.3641667,6.35822222 21.978,6.35822222 C17.7136667,6.35822222 14.1588333,7.16533333 12.9378333,8.39911111 Z M30.1473333,9.56177778 L30.0886667,9.62755556 C30.0776667,9.64177778 29.975,9.76266667 29.9676667,9.77511111 C29.9603333,9.78044444 29.9548333,9.78755556 29.9493333,9.79288889 C29.1188333,10.5857778 26.1268333,11.3822222 21.9798333,11.3822222 C16.7621667,11.3822222 13.9205,10.1324444 13.8545,9.59911111 C13.8545,9.59022222 13.8563333,9.57955556 13.8563333,9.57066667 C13.8563333,9.56533333 13.8563333,9.56177778 13.8563333,9.55644444 C13.8673333,9.53155556 13.9003333,9.47644444 13.9865,9.39466667 C14.7583333,8.61244444 17.8236667,7.78044444 21.978,7.78044444 C25.0891667,7.78044444 27.929,8.24622222 29.4066667,9.00533333 C29.9951667,9.288 30.1418333,9.51555556 30.1473333,9.56177778 Z" id="Shape" fill-rule="nonzero"></path>
                        <path d="M1.62433333,15 C1.62433333,11.5315556 3.75833333,8.28 7.63583333,5.83911111 C11.4803333,3.41955556 16.5806667,2.088 22,2.088 C27.4175,2.088 32.5178333,3.42133333 36.3623333,5.84088889 C40.2416667,8.27822222 42.3756667,11.5333333 42.3756667,15 C42.3756667,17.0782222 41.6093333,19.0817778 40.1573333,20.8773333 C40.0895,20.9164444 40.0271667,20.968 39.9703333,21.0302222 C39.5358333,21.528 38.8538333,21.88 37.8858333,22.1093333 C35.2825,22.7333333 34.4135,21.6737778 33.33,20.3351111 C32.3308333,19.1013333 31.0896667,17.5617778 28.281,18.2106667 C25.707,18.8008889 24.8471667,20.1164444 24.156,21.1742222 C23.4263333,22.2942222 22.9313333,23.0337778 20.4691667,22.9004444 C18.2526667,22.7813333 17.5376667,21.7306667 17.0536667,19.96 C16.4193333,17.6328889 15.9188333,15.7964444 11.9625,15.7271111 C9.51683333,15.7271111 8.52316667,16.9288889 7.72016667,17.896 C6.68983333,19.1404444 6.006,19.9706667 2.0735,17.7182222 C1.77466667,16.8346667 1.62433333,15.9244444 1.62433333,15 Z" id="Path" fill-opacity="0.25"></path>
                        <path d="M6.83833333,25.3537778 C10.9193333,27.9208889 16.302,29.3342222 22.0018333,29.3342222 C27.7016667,29.3342222 33.0861667,27.9208889 37.1635,25.3537778 C41.4718333,22.6426667 43.846,18.9644444 43.846,15 C43.846,11.0337778 41.4718333,7.35733333 37.1635,4.64622222 C33.0843333,2.07911111 27.7016667,0.664 22.0018333,0.664 C16.302,0.664 10.9175,2.07911111 6.83833333,4.648 C2.53,7.35733333 0.155833333,11.0337778 0.155833333,15 C0.155833333,18.9644444 2.53,22.6426667 6.83833333,25.3537778 Z M1.62433333,15 C1.62433333,11.5315556 3.75833333,8.28 7.63583333,5.83911111 C11.4803333,3.41955556 16.5806667,2.088 22,2.088 C27.4175,2.088 32.5178333,3.42133333 36.3623333,5.84088889 C40.2416667,8.27822222 42.3756667,11.5333333 42.3756667,15 C42.3756667,17.0782222 41.6093333,19.0817778 40.1573333,20.8773333 C40.0895,20.9164444 40.0271667,20.968 39.9703333,21.0302222 C39.5358333,21.528 38.8538333,21.88 37.8858333,22.1093333 C35.2825,22.7333333 34.4135,21.6737778 33.33,20.3351111 C32.3308333,19.1013333 31.0896667,17.5617778 28.281,18.2106667 C25.707,18.8008889 24.8471667,20.1164444 24.156,21.1742222 C23.4263333,22.2942222 22.9313333,23.0337778 20.4691667,22.9004444 C18.2526667,22.7813333 17.5376667,21.7306667 17.0536667,19.96 C16.4193333,17.6328889 15.9188333,15.7964444 11.9625,15.7271111 C9.51683333,15.7271111 8.52316667,16.9288889 7.72016667,17.896 C6.68983333,19.1404444 6.006,19.9706667 2.0735,17.7182222 C1.77466667,16.8346667 1.62433333,15.9244444 1.62433333,15 Z M8.86233333,18.7848889 C9.603,17.8906667 10.296,17.1013333 11.9368333,17.1475556 C14.784,17.1973333 15.0168333,18.0471111 15.6365,20.3226667 C16.1498333,22.2 17.1178333,24.1431111 20.3885,24.3208889 C23.694,24.5022222 24.6106667,23.1386667 25.3953333,21.9351111 C26.0296667,20.968 26.6255,20.0524444 28.6183333,19.5955556 C30.5121667,19.16 31.2143333,20.024 32.1768333,21.2151111 C33.1686667,22.4417778 34.375,23.9244444 37.0865,23.6862222 C36.8518333,23.848 36.6116667,24.008 36.3623333,24.1644444 C32.5196667,26.5822222 27.4193333,27.9155556 22,27.9155556 C16.5825,27.9155556 11.4803333,26.5822222 7.63583333,24.1644444 C5.6485,22.9128889 4.1195,21.4497778 3.10016667,19.8533333 C6.3855,21.2986667 7.60283333,20.3102222 8.86233333,18.7848889 Z" id="Shape" fill-rule="nonzero"></path>
                    </g>
                </g>
            </g>
        </g>
    </g>
</svg>