<?xml version="1.0" encoding="UTF-8"?>
<svg width="28px" height="24px" viewBox="0 0 28 24" version="1.1" xmlns="http://www.w3.org/2000/svg" xmlns:xlink="http://www.w3.org/1999/xlink">
    <!-- Generator: Sketch 49.1 (51147) - http://www.bohemiancoding.com/sketch -->
    <title>icon-twitter</title>
    <desc>Created with Sketch.</desc>
    <defs></defs>
    <g id="Symbols" stroke="none" stroke-width="1" fill="none" fill-rule="evenodd">
        <g id="Header" transform="translate(-1065.000000, -30.000000)" fill="#FFFFFF" fill-rule="nonzero">
            <g id="icon-twitter" transform="translate(1065.000000, 30.000000)">
                <path d="M28,2.8411698 C26.9711803,3.3230772 25.8634734,3.6489708 24.7015318,3.794583 C25.8881257,3.0457206 26.7986145,1.8582882 27.2275634,0.4437702 C26.1165701,1.1371614 24.8888891,1.6416036 23.5773907,1.912026 C22.5321361,0.7349946 21.0382107,0 19.3848684,0 C16.2145918,0 13.6425427,2.7128928 13.6425427,6.0585048 C13.6425427,6.533478 13.6918472,6.9945828 13.7904562,7.438353 C9.01614117,7.1852652 4.78417567,4.7757312 1.94916925,1.105959 C1.45448158,2.0039004 1.17180233,3.0457206 1.17180233,4.1551464 C1.17180233,6.2561214 2.18583108,8.1109428 3.72741658,9.1978332 C2.78734517,9.1683642 1.89986475,8.892741 1.12414167,8.4420366 L1.12414167,8.5165764 C1.12414167,11.453088 3.10453733,13.902492 5.73410833,14.4572046 C5.25256783,14.59935 4.74473183,14.6704224 4.22046158,14.6704224 C3.85067783,14.6704224 3.48911208,14.6340198 3.13905025,14.5629468 C3.87039975,16.969014 5.9904915,18.72156 8.50501867,18.7683642 C6.539414,20.394366 4.06104358,21.3633804 1.37066358,21.3633804 C0.90720175,21.3633804 0.44867025,21.3356448 0,21.2801736 C2.5424665,22.9963164 5.56318583,24 8.80577542,24 C19.3733639,24 25.1502026,14.769231 25.1502026,6.762297 C25.1502026,6.4988082 25.1452722,6.2353194 25.135411,5.9770314 C26.2579094,5.1224268 27.2324938,4.0563378 28,2.8411698" id="Twitter"></path>
            </g>
        </g>
    </g>
</svg>