<?xml version="1.0" encoding="UTF-8"?>
<svg width="28px" height="24px" viewBox="0 0 28 24" version="1.1" xmlns="http://www.w3.org/2000/svg" xmlns:xlink="http://www.w3.org/1999/xlink">
    <!-- Generator: Sketch 49.1 (51147) - http://www.bohemiancoding.com/sketch -->
    <title>icon-twitter</title>
    <desc>Created with Sketch.</desc>
    <defs></defs>
    <g id="Symbols" stroke="none" stroke-width="1" fill="none" fill-rule="evenodd">
        <g id="Header" transform="translate(-1080.000000, -28.000000)">
            <g id="icon-twitter" transform="translate(1072.000000, 18.000000)">
                <rect id="Rectangle" x="0" y="0" width="44" height="44"></rect>
                <path d="M36,12.8411698 C34.9711803,13.3230772 33.8634734,13.6489708 32.7015318,13.794583 C33.8881257,13.0457206 34.7986145,11.8582882 35.2275634,10.4437702 C34.1165701,11.1371614 32.8888891,11.6416036 31.5773907,11.912026 C30.5321361,10.7349946 29.0382107,10 27.3848684,10 C24.2145918,10 21.6425427,12.7128928 21.6425427,16.0585048 C21.6425427,16.533478 21.6918472,16.9945828 21.7904562,17.438353 C17.0161412,17.1852652 12.7841757,14.7757312 9.94916925,11.105959 C9.45448158,12.0039004 9.17180233,13.0457206 9.17180233,14.1551464 C9.17180233,16.2561214 10.1858311,18.1109428 11.7274166,19.1978332 C10.7873452,19.1683642 9.89986475,18.892741 9.12414167,18.4420366 L9.12414167,18.5165764 C9.12414167,21.453088 11.1045373,23.902492 13.7341083,24.4572046 C13.2525678,24.59935 12.7447318,24.6704224 12.2204616,24.6704224 C11.8506778,24.6704224 11.4891121,24.6340198 11.1390503,24.5629468 C11.8703998,26.969014 13.9904915,28.72156 16.5050187,28.7683642 C14.539414,30.394366 12.0610436,31.3633804 9.37066358,31.3633804 C8.90720175,31.3633804 8.44867025,31.3356448 8,31.2801736 C10.5424665,32.9963164 13.5631858,34 16.8057754,34 C27.3733639,34 33.1502026,24.769231 33.1502026,16.762297 C33.1502026,16.4988082 33.1452722,16.2353194 33.135411,15.9770314 C34.2579094,15.1224268 35.2324938,14.0563378 36,12.8411698" id="Twitter" fill="#FFFFFF" fill-rule="nonzero"></path>
            </g>
        </g>
    </g>
</svg>