<?xml version="1.0" encoding="UTF-8"?>
<svg width="262px" height="33px" viewBox="0 0 262 33" version="1.1" xmlns="http://www.w3.org/2000/svg" xmlns:xlink="http://www.w3.org/1999/xlink">
    <!-- Generator: Sketch 49.1 (51147) - http://www.bohemiancoding.com/sketch -->
    <title>logo</title>
    <desc>Created with Sketch.</desc>
    <defs></defs>
    <g id="Symbols" stroke="none" stroke-width="1" fill="none" fill-rule="evenodd">
        <g id="Header" transform="translate(-236.000000, -25.000000)" fill="#FFFFFF">
            <g id="original_Header_97390330">
                <g id="logo" transform="translate(236.000000, 23.000000)">
                    <g id="icon-logo" transform="translate(0.000000, 2.000000)">
                        <path d="M12.9378333,8.39911111 C12.5711667,8.75466667 12.3841667,9.144 12.3841667,9.55822222 C12.3841667,9.576 12.386,9.59377778 12.3878333,9.61155556 C12.43,11.8053333 17.38,12.8044444 21.978,12.8044444 C26.2093333,12.8044444 29.7513333,12.0097778 31.0016667,10.7813333 C31.009,10.7742222 31.0181667,10.7653333 31.0273333,10.7564444 C31.1373333,10.6462222 31.2235,10.5395556 31.2693333,10.4666667 C31.5021667,10.1608889 31.614,9.864 31.614,9.55822222 C31.614,8.84177778 31.0896667,8.22666667 30.0758333,7.73955556 C28.391,6.87555556 25.3641667,6.35822222 21.978,6.35822222 C17.7136667,6.35822222 14.1588333,7.16533333 12.9378333,8.39911111 Z M30.1473333,9.56177778 L30.0886667,9.62755556 C30.0776667,9.64177778 29.975,9.76266667 29.9676667,9.77511111 C29.9603333,9.78044444 29.9548333,9.78755556 29.9493333,9.79288889 C29.1188333,10.5857778 26.1268333,11.3822222 21.9798333,11.3822222 C16.7621667,11.3822222 13.9205,10.1324444 13.8545,9.59911111 C13.8545,9.59022222 13.8563333,9.57955556 13.8563333,9.57066667 C13.8563333,9.56533333 13.8563333,9.56177778 13.8563333,9.55644444 C13.8673333,9.53155556 13.9003333,9.47644444 13.9865,9.39466667 C14.7583333,8.61244444 17.8236667,7.78044444 21.978,7.78044444 C25.0891667,7.78044444 27.929,8.24622222 29.4066667,9.00533333 C29.9951667,9.288 30.1418333,9.51555556 30.1473333,9.56177778 Z" id="Shape" fill-rule="nonzero"></path>
                        <path d="M1.62433333,15 C1.62433333,11.5315556 3.75833333,8.28 7.63583333,5.83911111 C11.4803333,3.41955556 16.5806667,2.088 22,2.088 C27.4175,2.088 32.5178333,3.42133333 36.3623333,5.84088889 C40.2416667,8.27822222 42.3756667,11.5333333 42.3756667,15 C42.3756667,17.0782222 41.6093333,19.0817778 40.1573333,20.8773333 C40.0895,20.9164444 40.0271667,20.968 39.9703333,21.0302222 C39.5358333,21.528 38.8538333,21.88 37.8858333,22.1093333 C35.2825,22.7333333 34.4135,21.6737778 33.33,20.3351111 C32.3308333,19.1013333 31.0896667,17.5617778 28.281,18.2106667 C25.707,18.8008889 24.8471667,20.1164444 24.156,21.1742222 C23.4263333,22.2942222 22.9313333,23.0337778 20.4691667,22.9004444 C18.2526667,22.7813333 17.5376667,21.7306667 17.0536667,19.96 C16.4193333,17.6328889 15.9188333,15.7964444 11.9625,15.7271111 C9.51683333,15.7271111 8.52316667,16.9288889 7.72016667,17.896 C6.68983333,19.1404444 6.006,19.9706667 2.0735,17.7182222 C1.77466667,16.8346667 1.62433333,15.9244444 1.62433333,15 Z" id="Path" fill-opacity="0.25"></path>
                        <path d="M6.83833333,25.3537778 C10.9193333,27.9208889 16.302,29.3342222 22.0018333,29.3342222 C27.7016667,29.3342222 33.0861667,27.9208889 37.1635,25.3537778 C41.4718333,22.6426667 43.846,18.9644444 43.846,15 C43.846,11.0337778 41.4718333,7.35733333 37.1635,4.64622222 C33.0843333,2.07911111 27.7016667,0.664 22.0018333,0.664 C16.302,0.664 10.9175,2.07911111 6.83833333,4.648 C2.53,7.35733333 0.155833333,11.0337778 0.155833333,15 C0.155833333,18.9644444 2.53,22.6426667 6.83833333,25.3537778 Z M1.62433333,15 C1.62433333,11.5315556 3.75833333,8.28 7.63583333,5.83911111 C11.4803333,3.41955556 16.5806667,2.088 22,2.088 C27.4175,2.088 32.5178333,3.42133333 36.3623333,5.84088889 C40.2416667,8.27822222 42.3756667,11.5333333 42.3756667,15 C42.3756667,17.0782222 41.6093333,19.0817778 40.1573333,20.8773333 C40.0895,20.9164444 40.0271667,20.968 39.9703333,21.0302222 C39.5358333,21.528 38.8538333,21.88 37.8858333,22.1093333 C35.2825,22.7333333 34.4135,21.6737778 33.33,20.3351111 C32.3308333,19.1013333 31.0896667,17.5617778 28.281,18.2106667 C25.707,18.8008889 24.8471667,20.1164444 24.156,21.1742222 C23.4263333,22.2942222 22.9313333,23.0337778 20.4691667,22.9004444 C18.2526667,22.7813333 17.5376667,21.7306667 17.0536667,19.96 C16.4193333,17.6328889 15.9188333,15.7964444 11.9625,15.7271111 C9.51683333,15.7271111 8.52316667,16.9288889 7.72016667,17.896 C6.68983333,19.1404444 6.006,19.9706667 2.0735,17.7182222 C1.77466667,16.8346667 1.62433333,15.9244444 1.62433333,15 Z M8.86233333,18.7848889 C9.603,17.8906667 10.296,17.1013333 11.9368333,17.1475556 C14.784,17.1973333 15.0168333,18.0471111 15.6365,20.3226667 C16.1498333,22.2 17.1178333,24.1431111 20.3885,24.3208889 C23.694,24.5022222 24.6106667,23.1386667 25.3953333,21.9351111 C26.0296667,20.968 26.6255,20.0524444 28.6183333,19.5955556 C30.5121667,19.16 31.2143333,20.024 32.1768333,21.2151111 C33.1686667,22.4417778 34.375,23.9244444 37.0865,23.6862222 C36.8518333,23.848 36.6116667,24.008 36.3623333,24.1644444 C32.5196667,26.5822222 27.4193333,27.9155556 22,27.9155556 C16.5825,27.9155556 11.4803333,26.5822222 7.63583333,24.1644444 C5.6485,22.9128889 4.1195,21.4497778 3.10016667,19.8533333 C6.3855,21.2986667 7.60283333,20.3102222 8.86233333,18.7848889 Z" id="Shape" fill-rule="nonzero"></path>
                    </g>
                    <path d="M56.0625,3.7265625 L59.5,3.7265625 C62.671875,3.7265625 64.3046875,5.625 64.3046875,9.3046875 C64.3046875,13.078125 62.6875,15 59.5,15 L56.0625,15 L56.0625,3.7265625 Z M57.953125,5.375 L57.953125,13.3515625 L59.265625,13.3515625 C61.390625,13.3515625 62.375,12.09375 62.375,9.3359375 C62.375,6.65625 61.375,5.375 59.265625,5.375 L57.953125,5.375 Z M74.49375,10.2421875 C74.49375,13.375 72.884375,15.2265625 70.2359375,15.2265625 C67.5875,15.2265625 65.978125,13.375 65.978125,10.2421875 L65.978125,8.484375 C65.978125,5.3515625 67.5875,3.5 70.2359375,3.5 C72.884375,3.5 74.49375,5.3515625 74.49375,8.484375 L74.49375,10.2421875 Z M70.2359375,13.5390625 C71.7359375,13.5390625 72.5796875,12.3984375 72.5796875,10.2265625 L72.5796875,8.5 C72.5796875,6.328125 71.7359375,5.1875 70.2359375,5.1875 C68.7359375,5.1875 67.8921875,6.328125 67.8921875,8.5 L67.8921875,10.2265625 C67.8921875,12.3984375 68.7359375,13.5390625 70.2359375,13.5390625 Z M80.8703125,15 L76.8390625,15 L76.8390625,3.7265625 L80.7921875,3.7265625 C82.925,3.7265625 84.20625,4.7734375 84.20625,6.5234375 C84.20625,7.75 83.3703125,8.7734375 82.2140625,8.9609375 L82.2140625,9.0859375 C83.7140625,9.2109375 84.753125,10.3359375 84.753125,11.8125 C84.753125,13.7890625 83.2921875,15 80.8703125,15 Z M78.6984375,5.21875 L78.6984375,8.4609375 L80.1671875,8.4609375 C81.5421875,8.4609375 82.3078125,7.8828125 82.3078125,6.859375 C82.3078125,5.8046875 81.5890625,5.21875 80.3078125,5.21875 L78.6984375,5.21875 Z M78.6984375,13.484375 L80.3390625,13.484375 C81.9796875,13.484375 82.7921875,12.890625 82.7921875,11.6640625 C82.7921875,10.484375 81.95625,9.8828125 80.3078125,9.8828125 L78.6984375,9.8828125 L78.6984375,13.484375 Z M89.0125,16.453125 L87.2078125,16.453125 L92.5828125,2.2734375 L94.4265625,2.2734375 L89.0125,16.453125 Z M101.451563,15 L97.4203125,15 L97.4203125,3.7265625 L101.373438,3.7265625 C103.50625,3.7265625 104.7875,4.7734375 104.7875,6.5234375 C104.7875,7.75 103.951563,8.7734375 102.795313,8.9609375 L102.795313,9.0859375 C104.295313,9.2109375 105.334375,10.3359375 105.334375,11.8125 C105.334375,13.7890625 103.873438,15 101.451563,15 Z M99.2796875,5.21875 L99.2796875,8.4609375 L100.748438,8.4609375 C102.123438,8.4609375 102.889063,7.8828125 102.889063,6.859375 C102.889063,5.8046875 102.170313,5.21875 100.889063,5.21875 L99.2796875,5.21875 Z M99.2796875,13.484375 L100.920313,13.484375 C102.560938,13.484375 103.373438,12.890625 103.373438,11.6640625 C103.373438,10.484375 102.5375,9.8828125 100.889063,9.8828125 L99.2796875,9.8828125 L99.2796875,13.484375 Z M109.960938,10.5390625 L112.710938,10.5390625 L111.382813,5.703125 L111.304688,5.703125 L109.960938,10.5390625 Z M113.9375,15 L113.125,12.0390625 L109.546875,12.0390625 L108.726563,15 L106.835938,15 L110.3125,3.7265625 L112.484375,3.7265625 L115.960938,15 L113.9375,15 Z M125.321875,13.3515625 L125.321875,15 L118.392188,15 L118.392188,3.7265625 L125.321875,3.7265625 L125.321875,5.375 L120.282813,5.375 L120.282813,8.515625 L125.032813,8.515625 L125.032813,10.0546875 L120.282813,10.0546875 L120.282813,13.3515625 L125.321875,13.3515625 Z" id="DOB/BAE"></path>
                    <path d="M57.390625,28.71875 L60.0273438,28.71875 L58.7148438,24.59375 L58.703125,24.59375 L57.390625,28.71875 Z M61.0703125,32 L60.2441406,29.4101562 L57.1738281,29.4101562 L56.3476562,32 L55.5273438,32 L58.3164062,23.5449219 L59.1015625,23.5449219 L61.890625,32 L61.0703125,32 Z M71.5703125,28.4257812 L71.5703125,29.2695312 C71.5703125,30.5703125 72.3027344,31.4199219 73.4335938,31.4199219 C74.5585938,31.4199219 75.2910156,30.5761719 75.2910156,29.2695312 L75.2910156,28.4257812 C75.2910156,27.1191406 74.5585938,26.2753906 73.4335938,26.2753906 C72.3027344,26.2753906 71.5703125,27.125 71.5703125,28.4257812 Z M75.3085938,31.0917969 L75.203125,31.0917969 C74.8339844,31.7539062 74.1601562,32.1054688 73.2636719,32.1054688 C71.7988281,32.1054688 70.8027344,31.0273438 70.8027344,29.4511719 L70.8027344,28.2382812 C70.8027344,26.6621094 71.7988281,25.5839844 73.2636719,25.5839844 C74.1777344,25.5839844 74.8691406,25.9589844 75.1679688,26.6210938 L75.2734375,26.6210938 L75.2734375,23.1757812 L76.0410156,23.1757812 L76.0410156,32 L75.3085938,32 L75.3085938,31.0917969 Z M80.40625,32.1113281 C79.1933594,32.1113281 78.390625,31.3613281 78.390625,30.21875 C78.390625,29.1113281 79.1816406,28.4492188 80.5761719,28.3847656 L82.4042969,28.3027344 L82.4042969,27.7050781 C82.4042969,26.796875 81.8828125,26.3046875 80.9160156,26.3046875 C80.1191406,26.3046875 79.5683594,26.6445312 79.3925781,27.2539062 L78.6308594,27.2539062 C78.7480469,26.3105469 79.6972656,25.6367188 80.9160156,25.6367188 C82.3457031,25.6367188 83.1777344,26.3867188 83.1777344,27.6699219 L83.1777344,32.0058594 L82.4394531,32.0058594 L82.4394531,31.0097656 L82.3574219,31.0097656 C82.0585938,31.71875 81.3613281,32.1113281 80.40625,32.1113281 Z M80.59375,31.4316406 C81.6132812,31.4316406 82.4042969,30.7285156 82.4042969,29.8203125 L82.4042969,28.9414062 L80.6289062,29.0175781 C79.6855469,29.0585938 79.1816406,29.4804688 79.1816406,30.21875 C79.1816406,30.96875 79.7207031,31.4316406 80.59375,31.4316406 Z M87.390625,24.0488281 L88.1582031,24.0488281 L88.1582031,25.6894531 L90.8007812,25.6894531 L90.8007812,26.3398438 L88.1582031,26.3398438 L88.1582031,30.1542969 C88.1582031,30.9335938 88.6972656,31.3554688 89.6992188,31.3554688 C90.1328125,31.3554688 90.5957031,31.3378906 90.8007812,31.3085938 L90.8007812,31.9648438 C90.6132812,32 90.0214844,32.0351562 89.6582031,32.0351562 C88.140625,32.0351562 87.390625,31.4199219 87.390625,30.1777344 L87.390625,26.3398438 L85.6914062,26.3398438 L85.6914062,25.6894531 L87.390625,25.6894531 L87.390625,24.0488281 Z M95.2421875,32.1113281 C94.0292969,32.1113281 93.2265625,31.3613281 93.2265625,30.21875 C93.2265625,29.1113281 94.0175781,28.4492188 95.4121094,28.3847656 L97.2402344,28.3027344 L97.2402344,27.7050781 C97.2402344,26.796875 96.71875,26.3046875 95.7519531,26.3046875 C94.9550781,26.3046875 94.4042969,26.6445312 94.2285156,27.2539062 L93.4667969,27.2539062 C93.5839844,26.3105469 94.5332031,25.6367188 95.7519531,25.6367188 C97.1816406,25.6367188 98.0136719,26.3867188 98.0136719,27.6699219 L98.0136719,32.0058594 L97.2753906,32.0058594 L97.2753906,31.0097656 L97.1933594,31.0097656 C96.8945312,31.71875 96.1972656,32.1113281 95.2421875,32.1113281 Z M95.4296875,31.4316406 C96.4492188,31.4316406 97.2402344,30.7285156 97.2402344,29.8203125 L97.2402344,28.9414062 L95.4648438,29.0175781 C94.5214844,29.0585938 94.0175781,29.4804688 94.0175781,30.21875 C94.0175781,30.96875 94.5566406,31.4316406 95.4296875,31.4316406 Z M110.916016,32.1054688 C110.019531,32.1054688 109.345703,31.7539062 108.976562,31.0917969 L108.871094,31.0917969 L108.871094,32 L108.138672,32 L108.138672,23.1757812 L108.90625,23.1757812 L108.90625,26.6210938 L109.011719,26.6210938 C109.310547,25.9589844 110.001953,25.5839844 110.916016,25.5839844 C112.380859,25.5839844 113.376953,26.6621094 113.376953,28.2382812 L113.376953,29.4511719 C113.376953,31.0273438 112.380859,32.1054688 110.916016,32.1054688 Z M110.746094,31.4199219 C111.876953,31.4199219 112.609375,30.5703125 112.609375,29.2695312 L112.609375,28.4257812 C112.609375,27.125 111.876953,26.2753906 110.746094,26.2753906 C109.621094,26.2753906 108.888672,27.1191406 108.888672,28.4257812 L108.888672,29.2695312 C108.888672,30.5761719 109.621094,31.4199219 110.746094,31.4199219 Z M120.800781,32 L115.650391,32 L115.650391,31.3789062 L117.871094,31.3789062 L117.871094,23.796875 L115.638672,23.796875 L115.638672,23.1757812 L118.638672,23.1757812 L118.638672,31.3789062 L120.800781,31.3789062 L120.800781,32 Z M125.470703,32.1054688 C123.841797,32.1054688 122.798828,31.015625 122.798828,29.3164062 L122.798828,28.3789062 C122.798828,26.6796875 123.841797,25.5898438 125.470703,25.5898438 C127.099609,25.5898438 128.142578,26.6796875 128.142578,28.3789062 L128.142578,29.3164062 C128.142578,31.015625 127.099609,32.1054688 125.470703,32.1054688 Z M125.470703,26.2753906 C124.298828,26.2753906 123.566406,27.1132812 123.566406,28.4785156 L123.566406,29.2167969 C123.566406,30.5820312 124.298828,31.4199219 125.470703,31.4199219 C126.642578,31.4199219 127.375,30.5820312 127.375,29.2167969 L127.375,28.4785156 C127.375,27.1132812 126.642578,26.2753906 125.470703,26.2753906 Z M130.855469,29.2695312 C130.855469,30.5703125 131.587891,31.4199219 132.71875,31.4199219 C133.84375,31.4199219 134.576172,30.5761719 134.576172,29.2695312 L134.576172,28.4257812 C134.576172,27.1191406 133.84375,26.2753906 132.71875,26.2753906 C131.587891,26.2753906 130.855469,27.125 130.855469,28.4257812 L130.855469,29.2695312 Z M132.701172,34.3671875 C131.306641,34.3671875 130.363281,33.7460938 130.222656,32.7382812 L130.990234,32.7382812 C131.130859,33.3125 131.816406,33.6933594 132.712891,33.6933594 C133.896484,33.6933594 134.558594,33.0722656 134.558594,31.9589844 L134.558594,31.0917969 L134.453125,31.0917969 C134.148438,31.7363281 133.457031,32.1054688 132.548828,32.1054688 C131.083984,32.1054688 130.087891,31.0273438 130.087891,29.4511719 L130.087891,28.2382812 C130.087891,26.6621094 131.083984,25.5839844 132.548828,25.5839844 C133.462891,25.5839844 134.154297,25.9589844 134.453125,26.6210938 L134.558594,26.6210938 L134.558594,25.6894531 L135.326172,25.6894531 L135.326172,32 C135.326172,33.4941406 134.359375,34.3671875 132.701172,34.3671875 Z M148.005859,32.1054688 C147.109375,32.1054688 146.435547,31.7539062 146.066406,31.0917969 L145.960938,31.0917969 L145.960938,32 L145.228516,32 L145.228516,23.1757812 L145.996094,23.1757812 L145.996094,26.6210938 L146.101562,26.6210938 C146.400391,25.9589844 147.091797,25.5839844 148.005859,25.5839844 C149.470703,25.5839844 150.466797,26.6621094 150.466797,28.2382812 L150.466797,29.4511719 C150.466797,31.0273438 149.470703,32.1054688 148.005859,32.1054688 Z M147.835938,31.4199219 C148.966797,31.4199219 149.699219,30.5703125 149.699219,29.2695312 L149.699219,28.4257812 C149.699219,27.125 148.966797,26.2753906 147.835938,26.2753906 C146.710938,26.2753906 145.978516,27.1191406 145.978516,28.4257812 L145.978516,29.2695312 C145.978516,30.5761719 146.710938,31.4199219 147.835938,31.4199219 Z M153.408203,34.2324219 C153.314453,34.2324219 153.150391,34.2207031 153.050781,34.2089844 L153.050781,33.5410156 C153.138672,33.5585938 153.302734,33.5644531 153.396484,33.5644531 C153.976562,33.5644531 154.292969,33.2714844 154.603516,32.4335938 L154.732422,32.0410156 L152.365234,25.6894531 L153.197266,25.6894531 L155.107422,31.1621094 L155.177734,31.1621094 L157.082031,25.6894531 L157.902344,25.6894531 L155.447266,32.3046875 C154.884766,33.8222656 154.439453,34.2324219 153.408203,34.2324219 Z M168.660156,28.71875 L171.296875,28.71875 L169.984375,24.59375 L169.972656,24.59375 L168.660156,28.71875 Z M172.339844,32 L171.513672,29.4101562 L168.443359,29.4101562 L167.617188,32 L166.796875,32 L169.585938,23.5449219 L170.371094,23.5449219 L173.160156,32 L172.339844,32 Z M180.384766,27.4707031 L180.384766,32 L179.664062,32 L179.664062,27.6464844 C179.664062,26.7382812 179.359375,26.2753906 178.767578,26.2753906 C178.146484,26.2753906 177.771484,26.8378906 177.771484,27.7753906 L177.771484,32 L177.050781,32 L177.050781,27.640625 C177.050781,26.7382812 176.746094,26.2753906 176.148438,26.2753906 C175.515625,26.2753906 175.128906,26.84375 175.128906,27.7753906 L175.128906,32 L174.408203,32 L174.408203,25.6894531 L175.105469,25.6894531 L175.105469,26.5332031 L175.1875,26.5332031 C175.351562,25.9472656 175.814453,25.5839844 176.394531,25.5839844 C176.998047,25.5839844 177.425781,25.9355469 177.560547,26.5332031 L177.642578,26.5332031 C177.8125,25.9589844 178.345703,25.5839844 178.996094,25.5839844 C179.916016,25.5839844 180.384766,26.2226562 180.384766,27.4707031 Z M184.257812,32.1113281 C183.044922,32.1113281 182.242188,31.3613281 182.242188,30.21875 C182.242188,29.1113281 183.033203,28.4492188 184.427734,28.3847656 L186.255859,28.3027344 L186.255859,27.7050781 C186.255859,26.796875 185.734375,26.3046875 184.767578,26.3046875 C183.970703,26.3046875 183.419922,26.6445312 183.244141,27.2539062 L182.482422,27.2539062 C182.599609,26.3105469 183.548828,25.6367188 184.767578,25.6367188 C186.197266,25.6367188 187.029297,26.3867188 187.029297,27.6699219 L187.029297,32.0058594 L186.291016,32.0058594 L186.291016,31.0097656 L186.208984,31.0097656 C185.910156,31.71875 185.212891,32.1113281 184.257812,32.1113281 Z M184.445312,31.4316406 C185.464844,31.4316406 186.255859,30.7285156 186.255859,29.8203125 L186.255859,28.9414062 L184.480469,29.0175781 C183.537109,29.0585938 183.033203,29.4804688 183.033203,30.21875 C183.033203,30.96875 183.572266,31.4316406 184.445312,31.4316406 Z M189.736328,32 L189.736328,25.6894531 L190.46875,25.6894531 L190.46875,26.8261719 L190.544922,26.8261719 C190.890625,26.0292969 191.628906,25.5839844 192.607422,25.5839844 C193.984375,25.5839844 194.728516,26.3984375 194.728516,27.8984375 L194.728516,32 L193.960938,32 L193.960938,28.0917969 C193.960938,26.8554688 193.462891,26.2753906 192.402344,26.2753906 C191.271484,26.2753906 190.503906,27.078125 190.503906,28.25 L190.503906,32 L189.736328,32 Z M197.675781,28.4257812 L197.675781,29.2695312 C197.675781,30.5703125 198.408203,31.4199219 199.539062,31.4199219 C200.664062,31.4199219 201.396484,30.5761719 201.396484,29.2695312 L201.396484,28.4257812 C201.396484,27.1191406 200.664062,26.2753906 199.539062,26.2753906 C198.408203,26.2753906 197.675781,27.125 197.675781,28.4257812 Z M201.414062,31.0917969 L201.308594,31.0917969 C200.939453,31.7539062 200.265625,32.1054688 199.369141,32.1054688 C197.904297,32.1054688 196.908203,31.0273438 196.908203,29.4511719 L196.908203,28.2382812 C196.908203,26.6621094 197.904297,25.5839844 199.369141,25.5839844 C200.283203,25.5839844 200.974609,25.9589844 201.273438,26.6210938 L201.378906,26.6210938 L201.378906,23.1757812 L202.146484,23.1757812 L202.146484,32 L201.414062,32 L201.414062,31.0917969 Z M206.511719,32.1113281 C205.298828,32.1113281 204.496094,31.3613281 204.496094,30.21875 C204.496094,29.1113281 205.287109,28.4492188 206.681641,28.3847656 L208.509766,28.3027344 L208.509766,27.7050781 C208.509766,26.796875 207.988281,26.3046875 207.021484,26.3046875 C206.224609,26.3046875 205.673828,26.6445312 205.498047,27.2539062 L204.736328,27.2539062 C204.853516,26.3105469 205.802734,25.6367188 207.021484,25.6367188 C208.451172,25.6367188 209.283203,26.3867188 209.283203,27.6699219 L209.283203,32.0058594 L208.544922,32.0058594 L208.544922,31.0097656 L208.462891,31.0097656 C208.164062,31.71875 207.466797,32.1113281 206.511719,32.1113281 Z M206.699219,31.4316406 C207.71875,31.4316406 208.509766,30.7285156 208.509766,29.8203125 L208.509766,28.9414062 L206.734375,29.0175781 C205.791016,29.0585938 205.287109,29.4804688 205.287109,30.21875 C205.287109,30.96875 205.826172,31.4316406 206.699219,31.4316406 Z M219.214844,23.5449219 L221.458984,23.5449219 C223.861328,23.5449219 225.0625,24.9511719 225.0625,27.7753906 C225.0625,30.59375 223.861328,32 221.458984,32 L219.214844,32 L219.214844,23.5449219 Z M220.017578,24.2714844 L220.017578,31.2734375 L221.412109,31.2734375 C223.328125,31.2734375 224.242188,30.1484375 224.242188,27.7753906 C224.242188,25.4023438 223.328125,24.2714844 221.412109,24.2714844 L220.017578,24.2714844 Z M229.322266,32.1054688 C227.693359,32.1054688 226.650391,31.015625 226.650391,29.3164062 L226.650391,28.3789062 C226.650391,26.6796875 227.693359,25.5898438 229.322266,25.5898438 C230.951172,25.5898438 231.994141,26.6796875 231.994141,28.3789062 L231.994141,29.3164062 C231.994141,31.015625 230.951172,32.1054688 229.322266,32.1054688 Z M229.322266,26.2753906 C228.150391,26.2753906 227.417969,27.1132812 227.417969,28.4785156 L227.417969,29.2167969 C227.417969,30.5820312 228.150391,31.4199219 229.322266,31.4199219 C230.494141,31.4199219 231.226562,30.5820312 231.226562,29.2167969 L231.226562,28.4785156 C231.226562,27.1132812 230.494141,26.2753906 229.322266,26.2753906 Z M237.021484,32.1054688 C236.125,32.1054688 235.451172,31.7539062 235.082031,31.0917969 L234.976562,31.0917969 L234.976562,32 L234.244141,32 L234.244141,23.1757812 L235.011719,23.1757812 L235.011719,26.6210938 L235.117187,26.6210938 C235.416016,25.9589844 236.107422,25.5839844 237.021484,25.5839844 C238.486328,25.5839844 239.482422,26.6621094 239.482422,28.2382812 L239.482422,29.4511719 C239.482422,31.0273438 238.486328,32.1054688 237.021484,32.1054688 Z M236.851562,31.4199219 C237.982422,31.4199219 238.714844,30.5703125 238.714844,29.2695312 L238.714844,28.4257812 C238.714844,27.125 237.982422,26.2753906 236.851562,26.2753906 C235.726562,26.2753906 234.994141,27.1191406 234.994141,28.4257812 L234.994141,29.2695312 C234.994141,30.5761719 235.726562,31.4199219 236.851562,31.4199219 Z M244.439453,32.1054688 C243.542969,32.1054688 242.869141,31.7539062 242.5,31.0917969 L242.394531,31.0917969 L242.394531,32 L241.662109,32 L241.662109,23.1757812 L242.429687,23.1757812 L242.429687,26.6210938 L242.535156,26.6210938 C242.833984,25.9589844 243.525391,25.5839844 244.439453,25.5839844 C245.904297,25.5839844 246.900391,26.6621094 246.900391,28.2382812 L246.900391,29.4511719 C246.900391,31.0273438 245.904297,32.1054688 244.439453,32.1054688 Z M244.269531,31.4199219 C245.400391,31.4199219 246.132812,30.5703125 246.132812,29.2695312 L246.132812,28.4257812 C246.132812,27.125 245.400391,26.2753906 244.269531,26.2753906 C243.144531,26.2753906 242.412109,27.1191406 242.412109,28.4257812 L242.412109,29.2695312 C242.412109,30.5761719 243.144531,31.4199219 244.269531,31.4199219 Z M249.841797,34.2324219 C249.748047,34.2324219 249.583984,34.2207031 249.484375,34.2089844 L249.484375,33.5410156 C249.572266,33.5585938 249.736328,33.5644531 249.830078,33.5644531 C250.410156,33.5644531 250.726563,33.2714844 251.037109,32.4335938 L251.166016,32.0410156 L248.798828,25.6894531 L249.630859,25.6894531 L251.541016,31.1621094 L251.611328,31.1621094 L253.515625,25.6894531 L254.335938,25.6894531 L251.880859,32.3046875 C251.318359,33.8222656 250.873047,34.2324219 249.841797,34.2324219 Z M256.498047,32 L256.498047,25.6894531 L257.230469,25.6894531 L257.230469,26.8261719 L257.306641,26.8261719 C257.652344,26.0292969 258.390625,25.5839844 259.369141,25.5839844 C260.746094,25.5839844 261.490234,26.3984375 261.490234,27.8984375 L261.490234,32 L260.722656,32 L260.722656,28.0917969 C260.722656,26.8554688 260.224609,26.2753906 259.164062,26.2753906 C258.033203,26.2753906 257.265625,27.078125 257.265625,28.25 L257.265625,32 L256.498047,32 Z" id="A-data-blog-by-Amand"></path>
                </g>
            </g>
        </g>
    </g>
</svg>